<svg width="64" height="64" xmlns="http://www.w3.org/2000/svg" fill="none">

 <g>
  <title>Layer 1</title>
  <path id="svg_1" fill="#78716c" d="m18,22.3488c0,-2.954 2.3948,-5.3488 5.3488,-5.3488l35.3024,0c2.954,0 5.3488,2.3948 5.3488,5.3488l0,35.3024c0,2.954 -2.3948,5.3488 -5.3488,5.3488l-35.3024,0c-2.954,0 -5.3488,-2.3948 -5.3488,-5.3488l0,-35.3024z"/>
  <path id="svg_2" fill="#d6d3d1" d="m0,6.34884c0,-2.95408 2.39476,-5.34884 5.34884,-5.34884l35.30236,0c2.954,0 5.3488,2.39476 5.3488,5.34884l0,35.30236c0,2.954 -2.3948,5.3488 -5.3488,5.3488l-35.30236,0c-2.95408,0 -5.34884,-2.3948 -5.34884,-5.3488l0,-35.30236z"/>
  <path id="svg_3" fill="#57534e" d="m46,17l0,24.7059c0,2.9238 -2.4108,5.2941 -5.3846,5.2941l-22.6154,0l0,-24.7059c0,-2.9238 2.4108,-5.2941 5.3846,-5.2941l22.6154,0z"/>
 </g>
</svg>